<svg width="858" height="329" viewBox="0 0 858 329" fill="none" xmlns="http://www.w3.org/2000/svg">
<mask id="mask0_218_16" style="mask-type:alpha" maskUnits="userSpaceOnUse" x="0" y="0" width="858" height="329">
<rect opacity="0.5" width="858" height="329" fill="#D9D9D9"/>
</mask>
<g mask="url(#mask0_218_16)">
<path opacity="0.5" d="M166.526 187.487C404.248 33.5695 394.05 427.642 675.727 294.094C795.734 237.196 826.3 355.249 936.32 354.192L815.978 361.647L168.465 363.57L166.526 187.487Z" fill="url(#paint0_linear_218_16)"/>
<path d="M0.819654 153.292C240.22 2.28846 225.684 396.21 508.812 266.11C629.438 210.682 658.702 329.101 768.726 329.387L648.31 335.373L0.819659 329.387L0.819654 153.292Z" fill="url(#paint1_linear_218_16)"/>
<path d="M134 36C134 49.8071 145.193 61 159 61C172.807 61 184 49.8071 184 36C184 22.1929 172.807 11 159 11C145.193 11 134 22.1929 134 36Z" fill="url(#paint2_linear_218_16)"/>
<circle cx="12" cy="12" r="12" transform="matrix(-1 0 0 1 482 192)" fill="url(#paint3_linear_218_16)"/>
</g>
<defs>
<linearGradient id="paint0_linear_218_16" x1="228.412" y1="8.28729" x2="75.6758" y2="331.581" gradientUnits="userSpaceOnUse">
<stop offset="0.5" stop-color="#0ABAB5"/>
<stop offset="1" stop-color="#4C53C6"/>
</linearGradient>
<linearGradient id="paint1_linear_218_16" x1="64.6747" y1="-25.1395" x2="-91.8529" y2="296.15" gradientUnits="userSpaceOnUse">
<stop offset="0.5" stop-color="#0ABAB5"/>
<stop offset="1" stop-color="#4C53C6"/>
</linearGradient>
<linearGradient id="paint2_linear_218_16" x1="159" y1="11" x2="159" y2="61" gradientUnits="userSpaceOnUse">
<stop offset="0.4" stop-color="#0ABAB5"/>
<stop offset="1" stop-color="#4C53C6"/>
</linearGradient>
<linearGradient id="paint3_linear_218_16" x1="12" y1="0" x2="12" y2="24" gradientUnits="userSpaceOnUse">
<stop offset="0.4" stop-color="#0ABAB5"/>
<stop offset="1" stop-color="#4C53C6"/>
</linearGradient>
</defs>
</svg>
